HIERARCHY
ROOT root
{
	OFFSET	0	13.1	24.9
	CHANNELS 6  Xposition Yposition Zposition Xrotation Yrotation Zrotation
	JOINT spine_1
	{
		OFFSET	0	9.99999	0
		CHANNELS 3  Xrotation Yrotation Zrotation
		JOINT spine_2
		{
			OFFSET	0	112	-10
			CHANNELS 3  Xrotation Yrotation Zrotation
			JOINT spine_3
			{
				OFFSET	0	206.5	19.3
				CHANNELS 3  Xrotation Yrotation Zrotation
				JOINT spine_4
				{
					OFFSET	0	110.4	14.6
					CHANNELS 3  Xrotation Yrotation Zrotation
					JOINT neck_1
					{
						OFFSET	0	71.8	-50.3
						CHANNELS 3  Xrotation Yrotation Zrotation
						JOINT neck_2
						{
							OFFSET	0	86.2	-25.8
							CHANNELS 3  Xrotation Yrotation Zrotation
							JOINT head_ee
							{
								OFFSET	0	179.8	-8.7
								CHANNELS 3  Xrotation Yrotation Zrotation
								End Site
								{
									OFFSET	1	0	0
								}
							}
						}
					}
					JOINT left_clavicle
					{
						OFFSET	-43.2	22.4	-70.8
						CHANNELS 3  Xrotation Yrotation Zrotation
						JOINT left_shoulder
						{
							OFFSET	-93.9	-5.79999	48.7
							CHANNELS 3  Xrotation Yrotation Zrotation
							JOINT left_elbow
							{
								OFFSET	-291.4	-30.8	15.2
								CHANNELS 3  Xrotation Yrotation Zrotation
								JOINT left_lowarm_twist
								{
									OFFSET	-110.7	-3.89999	13.6
									CHANNELS 3  Xrotation Yrotation Zrotation
									JOINT left_hand
									{
										OFFSET	-110.7	-3.89999	13.6
										CHANNELS 3  Xrotation Yrotation Zrotation
										JOINT left_ee
										{
											OFFSET	-80.8	-5.10001	12.1
											CHANNELS 3  Xrotation Yrotation Zrotation
											End Site
											{
												OFFSET	1	0	0
											}
										}
									}
								}
							}
						}
					}
					JOINT right_clavicle
					{
						OFFSET	43.2	22.4	-70.8
						CHANNELS 3  Xrotation Yrotation Zrotation
						JOINT right_shoulder
						{
							OFFSET	93.9	-5.79999	48.7
							CHANNELS 3  Xrotation Yrotation Zrotation
							JOINT right_elbow
							{
								OFFSET	291.4	-30.8	15.2
								CHANNELS 3  Xrotation Yrotation Zrotation
								JOINT right_lowarm_twist
								{
									OFFSET	110.7	-3.89999	13.6
									CHANNELS 3  Xrotation Yrotation Zrotation
									JOINT right_hand
									{
										OFFSET	110.7	-3.89999	13.6
										CHANNELS 3  Xrotation Yrotation Zrotation
										JOINT right_ee
										{
											OFFSET	80.8	-5.10001	12.1
											CHANNELS 3  Xrotation Yrotation Zrotation
											End Site
											{
												OFFSET	1	0	0
											}
										}
									}
								}
							}
						}
					}
				}
			}
		}
	}
	JOINT left_hip
	{
		OFFSET	-82.8	-127.5	0.300001
		CHANNELS 3  Xrotation Yrotation Zrotation
		JOINT left_knee
		{
			OFFSET	-28.2	-396.7	2.2
			CHANNELS 3  Xrotation Yrotation Zrotation
			JOINT left_ankle
			{
				OFFSET	-11.7	-411.3	35.4
				CHANNELS 3  Xrotation Yrotation Zrotation
				JOINT left_toes
				{
					OFFSET	0	-60	-88.6
					CHANNELS 3  Xrotation Yrotation Zrotation
					JOINT left_foot_ee
					{
						OFFSET	-22.5	-16.5	-42.2
						CHANNELS 3  Xrotation Yrotation Zrotation
						End Site
						{
							OFFSET	1	0	0
						}
					}
				}
			}
		}
	}
	JOINT right_hip
	{
		OFFSET	82.8	-127.5	0.300001
		CHANNELS 3  Xrotation Yrotation Zrotation
		JOINT right_knee
		{
			OFFSET	28.2	-396.7	2.2
			CHANNELS 3  Xrotation Yrotation Zrotation
			JOINT right_ankle
			{
				OFFSET	11.7	-411.3	35.4
				CHANNELS 3  Xrotation Yrotation Zrotation
				JOINT right_toes
				{
					OFFSET	0	-60	-88.6
					CHANNELS 3  Xrotation Yrotation Zrotation
					JOINT right_foot_ee
					{
						OFFSET	22.5	-16.5	-42.2
						CHANNELS 3  Xrotation Yrotation Zrotation
						End Site
						{
							OFFSET	1	0	0
						}
					}
				}
			}
		}
	}
}
MOTION
Frames: 12
Frame Time: 0.02
792.768964708 628.4 -1712.45119621 16.3183280599 49.8879570418 -6.12146046354 -3.88798 -0.282882 -2.35364 -3.88491 -0.132583 -2.36686 -3.87481 0.525498 -2.31162 -3.88224 0.153933 -2.36557 -11.6244 12.7369 6.76958 -11.6948 19.7635 10.0355 -0.0 0.0 -0.0 9.54117 24.5276 15.9655 -0.799157 -19.2129 59.1428 2.59858 -52.1497 1.27178 -44.1076 -3.39821 4.33982 -3.38919 7.0511 -19.5128 -0.0 0.0 -0.0 6.42445 19.0812 -11.5985 -7.90052 10.2133 -62.7426 0.43942 12.2805 -0.0472731 78.1566 3.6277 8.50246 -3.78635 -28.5719 9.33356 0.0 0.0 0.0 -1.8715 23.2639 -9.58583 1.04948 -0.0446366 -0.154858 8.0515 6.0015 -1.15265 -19.1091 0.0 0.0 -0.0 0.0 -0.0 9.32265 8.28554 -7.15249 -42.5916 0.639824 -6.35722 -18.6532 28.5992 -3.52451 -37.0815 0.0 0.0 0.0 0.0 0.0 
784.741686418 632.145 -1706.01108571 15.4901138516 50.7638198579 -5.67491728497 -3.87339 -0.185146 -2.41278 -3.87015 -0.0312851 -2.41967 -3.86426 0.637096 -2.33454 -3.87177 0.260516 -2.40581 -11.0832 12.6628 5.95466 -11.1672 20.0535 9.14879 -0.0 0.0 -0.0 9.73003 24.5162 16.2431 -1.04835 -18.9599 58.9361 2.84353 -54.6178 1.46843 -46.6318 -3.68244 4.49525 -3.03675 3.93646 -18.7231 -0.0 0.0 -0.0 7.1916 19.7625 -13.2156 -8.54894 9.11144 -61.2766 0.322763 9.08418 -0.0256407 78.0371 3.61415 8.49527 -4.20947 -28.6519 11.6119 0.0 0.0 0.0 -1.29146 23.6272 -9.594 -0.160651 0.00658154 0.0237749 6.88602 6.86974 -0.989071 -19.1649 0.0 0.0 -0.0 0.0 -0.0 10.0417 6.79469 -7.88473 -38.6505 0.383156 -5.80845 -16.1354 26.4796 -2.9632 -35.9282 0.0 0.0 0.0 0.0 0.0 
784.551252078 632.145 -1703.83844875 15.6508091513 51.2308591734 -5.88169946827 -3.87339 -0.185146 -2.41278 -3.87015 -0.0312851 -2.41967 -3.86426 0.637096 -2.33454 -3.87177 0.260516 -2.40581 -11.0832 12.6628 5.95466 -11.1672 20.0535 9.14879 -0.0 0.0 -0.0 9.73003 24.5162 16.2431 -1.04835 -18.9599 58.9361 2.84353 -54.6178 1.46843 -46.6318 -3.68244 4.49525 -3.03675 3.93646 -18.7231 -0.0 0.0 -0.0 7.1916 19.7625 -13.2156 -8.54894 9.11144 -61.2766 0.322763 9.08418 -0.0256407 78.0371 3.61415 8.49527 -4.20947 -28.6519 11.6119 0.0 0.0 0.0 -1.29146 23.6272 -9.594 -0.160651 0.00658154 0.0237749 6.88602 6.86974 -0.989071 -19.1649 0.0 0.0 -0.0 0.0 -0.0 10.0417 6.79469 -7.88473 -38.6505 0.383156 -5.80845 -16.1354 26.4796 -2.9632 -35.9282 0.0 0.0 0.0 0.0 0.0 
773.6746263 629.742 -1693.57246278 16.5218510696 53.6667788241 -7.22423602774 -4.01897 -0.282562 -2.3794 -4.01583 -0.130626 -2.39255 -4.00556 0.539806 -2.33455 -4.01313 0.164444 -2.39047 -12.2171 12.3541 6.06756 -12.3338 19.5948 9.36362 -0.0 0.0 -0.0 9.87921 24.6704 16.432 -0.973926 -19.0188 58.5523 3.24702 -58.1175 1.80454 -49.1676 -3.97456 4.63866 -2.39475 1.45325 -15.51 -0.0 0.0 -0.0 7.39003 20.3802 -13.6003 -11.696 8.47683 -60.2964 0.490091 13.6463 -0.0586409 78.3343 3.64788 8.5131 -4.37506 -28.8077 12.4253 0.0 0.0 0.0 -0.517034 26.5467 -9.38902 -0.50818 0.0205915 0.0752672 8.08154 8.62555 -1.15619 -20.1936 0.0 0.0 -0.0 0.0 -0.0 10.919 5.97289 -8.63285 -32.1186 0.0428962 -4.86491 -12.2441 26.314 -2.23569 -33.3636 0.0 0.0 0.0 0.0 0.0 
768.10921767 630.642 -1682.30641074 16.4411737752 56.4291755005 -7.77983272895 -3.95321 -0.316606 -2.40114 -3.95002 -0.163219 -2.41641 -3.9382 0.512329 -2.36714 -3.946 0.132169 -2.41831 -10.2759 11.9077 6.13868 -10.2958 18.3514 8.98834 -0.0 0.0 -0.0 10.2916 25.1378 16.9407 0.0214406 -15.7954 60.3409 3.43446 -59.5397 1.96493 -52.7845 -4.40149 4.82055 -1.97533 -0.955312 -13.7594 -0.0 0.0 -0.0 7.30268 20.0625 -13.4346 -13.2298 9.24504 -59.8133 0.566351 15.6718 -0.0779427 77.3435 3.53582 8.45299 -5.27291 -28.8618 17.4351 0.0 0.0 0.0 -1.17443 25.9008 -8.22849 -0.822632 0.0329974 0.121929 15.8999 8.43171 -2.21038 -20.6921 0.0 0.0 -0.0 0.0 -0.0 11.3598 10.1252 -9.64397 -25.0474 -0.201688 -3.80794 -10.7978 25.1414 -1.94041 -39.79 0.0 0.0 0.0 0.0 0.0 
759.831922023 627.621 -1673.39049982 15.8465507851 56.9689055639 -7.7667807072 -3.80777 -0.24957 -2.54603 -3.80416 -0.0871075 -2.55674 -3.7951 0.618231 -2.48245 -3.80363 0.21855 -2.54888 -10.6064 12.1163 4.99694 -10.6922 19.5668 8.00419 -0.0 0.0 -0.0 10.2476 24.8038 16.9448 -0.615629 -17.4645 60.5814 3.56051 -60.433 2.07408 -55.1495 -4.68643 4.92476 -1.45779 -2.49286 -10.909 -0.0 0.0 -0.0 7.27178 20.385 -13.3411 -13.7675 8.04795 -59.5 0.555162 15.377 -0.0749481 78.2036 3.63303 8.50528 -5.11513 -28.957 16.4656 0.0 0.0 0.0 -3.19126 30.6755 -6.12932 1.03564 -0.0440297 -0.152822 16.7584 7.36697 -2.32106 -20.149 0.0 0.0 -0.0 0.0 -0.0 11.987 5.61324 -9.85154 -11.3544 -0.298479 -1.71411 -3.10094 23.6123 -0.53965 -35.7682 0.0 0.0 0.0 0.0 0.0 
759.820302077 627.621 -1673.76043151 15.8150110561 56.8964854605 -7.72914516386 -3.80777 -0.24957 -2.54603 -3.80416 -0.0871075 -2.55674 -3.7951 0.618231 -2.48245 -3.80363 0.21855 -2.54888 -10.6064 12.1163 4.99694 -10.6922 19.5668 8.00419 -0.0 0.0 -0.0 10.2476 24.8038 16.9448 -0.615629 -17.4645 60.5814 3.56051 -60.433 2.07408 -55.1495 -4.68643 4.92476 -1.45779 -2.49286 -10.909 -0.0 0.0 -0.0 7.27178 20.385 -13.3411 -13.7675 8.04795 -59.5 0.555162 15.377 -0.0749481 78.2036 3.63303 8.50528 -5.11513 -28.957 16.4656 0.0 0.0 0.0 -3.19126 30.6755 -6.12932 1.03564 -0.0440297 -0.152822 16.7584 7.36697 -2.32106 -20.149 0.0 0.0 -0.0 0.0 -0.0 11.987 5.61324 -9.85154 -11.3544 -0.298479 -1.71411 -3.10094 23.6123 -0.53965 -35.7682 0.0 0.0 0.0 0.0 0.0 
741.412987586 624.642 -1662.60073503 17.2488053431 61.621045329 -10.8842086984 -4.13504 -0.335704 -2.4753 -4.13165 -0.177564 -2.49163 -4.1185 0.527075 -2.44174 -4.1268 0.134958 -2.4943 -6.2633 12.5512 5.6784 -6.16783 19.1094 8.10024 -0.0 0.0 -0.0 10.0204 25.1111 16.5519 0.15991 -16.3154 63.2575 3.95133 -62.9202 2.41819 -60.9224 -5.39769 5.12897 -0.168661 -6.68762 -3.97814 -0.0 0.0 -0.0 7.08432 22.1981 -12.7767 -16.2641 8.09045 -59.9846 0.656032 18.0032 -0.103925 80.7673 3.9273 8.65243 -5.75961 -29.2925 19.8979 0.0 0.0 0.0 -2.83177 36.7805 -5.37088 -0.0935582 0.0038411 0.0138436 24.6194 2.22994 -3.29643 -23.432 0.0 0.0 -0.0 0.0 -0.0 9.38735 7.44649 -8.43267 -2.65108 -0.10004 -0.394519 -2.43707 22.4096 -0.418007 -35.9141 0.0 0.0 0.0 0.0 0.0 
717.826915616 626.578 -1669.74771108 17.4686861938 65.7070344626 -12.2839361945 -4.10025 -0.327906 -2.17654 -4.09764 -0.188777 -2.19298 -4.08616 0.431408 -2.15841 -4.09265 0.0851991 -2.19944 -3.28002 13.0051 5.97324 -3.08143 19.0886 8.09033 -0.0 0.0 -0.0 9.90986 25.1086 16.3923 -2.29807 -16.2474 62.1813 3.97598 -63.0642 2.44016 -66.2513 -6.06884 5.25289 1.14099 -10.3825 3.29018 -0.0 0.0 -0.0 7.86437 22.8635 -14.43 -18.0413 7.67533 -61.1187 0.722777 19.6995 -0.125494 82.7723 4.16182 8.75826 -5.98666 -29.2101 21.2908 0.0 0.0 0.0 -2.93377 43.0834 -5.63237 1.59134 -0.0687935 -0.234494 29.4586 0.0200987 -3.85213 -23.8361 0.0 0.0 -0.0 0.0 -0.0 7.22724 8.33611 -7.02517 -1.90505 -0.0737384 -0.283048 2.31494 22.414 0.391816 -30.8324 0.0 0.0 0.0 0.0 0.0 
710.798689831 627.244 -1674.6604759 17.6942251906 66.6706700636 -12.2353527457 -4.083 -0.329289 -2.10587 -4.08055 -0.194651 -2.12254 -4.06935 0.405457 -2.09254 -4.07546 0.0699693 -2.1303 -2.40011 12.7576 5.39493 -2.19183 18.8957 7.35526 -0.0 0.0 -0.0 9.84206 23.9549 16.5121 -2.65601 -16.2172 62.318 3.66113 -61.1125 2.16189 -67.0428 -6.16933 5.26593 1.39261 -10.983 4.73186 -0.0 0.0 -0.0 7.75442 21.4758 -14.3092 -18.0544 8.14381 -61.5186 0.820005 22.1072 -0.160192 83.0634 4.19617 8.77293 -5.96029 -29.0454 21.2733 0.0 0.0 0.0 -1.47358 43.3856 -7.87317 3.5716 -0.16347 -0.523544 31.5627 0.751125 -4.06955 -23.9646 0.0 0.0 -0.0 0.0 -0.0 6.2393 8.72783 -7.32558 -1.053 -0.0419234 -0.156156 3.76705 23.3095 0.640629 -29.8014 0.0 0.0 0.0 0.0 0.0 
703.348971026 627.327 -1678.82508269 18.6233036477 67.5917399908 -13.1852238493 -3.97639 -0.320343 -2.10471 -3.97394 -0.185797 -2.12082 -3.96317 0.409611 -2.08918 -3.96925 0.0746022 -2.12763 -1.72662 12.9634 5.71659 -1.49241 18.865 7.64242 -0.0 0.0 -0.0 9.33397 23.229 15.8844 -3.64547 -16.7298 61.985 3.41297 -59.3825 1.94642 -67.3736 -6.21138 5.27096 1.63813 -11.6313 6.11151 -0.0 0.0 -0.0 7.92456 21.5155 -14.6801 -18.048 8.93314 -61.8622 0.844738 22.7071 -0.169619 83.4292 4.23944 8.79113 -5.93682 -29.2096 20.9987 0.0 0.0 0.0 -1.08656 44.0759 -8.51195 5.85262 -0.28486 -0.852294 32.7775 2.46816 -4.18478 -24.1195 0.0 0.0 -0.0 0.0 -0.0 5.81758 8.61292 -7.44549 -2.07835 -0.0799782 -0.308912 4.60062 24.2831 0.7885 -27.9006 0.0 0.0 0.0 0.0 0.0 
697.13482102 626.986 -1685.60099639 18.0064617465 66.9593218979 -12.0368818909 -3.94486 -0.265234 -2.10703 -3.9424 -0.130652 -2.11963 -3.9338 0.461237 -2.07298 -3.93977 0.128137 -2.11979 -0.00325395 12.6002 4.54999 0.256969 18.7763 6.18253 -0.0 0.0 -0.0 9.21435 23.4225 15.6747 -4.56498 -17.4699 61.4248 3.19371 -57.691 1.75938 -68.4694 -6.35085 5.2859 1.61307 -7.91331 7.55292 -0.0 0.0 -0.0 7.95388 21.1705 -14.7733 -17.8514 9.96991 -61.6872 0.892716 23.8559 -0.188583 83.5515 4.25393 8.79716 -5.78098 -28.7936 20.4278 0.0 0.0 0.0 0.583069 44.3945 -10.3938 6.09443 -0.298495 -0.886861 30.5777 5.76432 -3.94956 -24.6894 0.0 0.0 -0.0 0.0 -0.0 4.97547 8.8296 -7.39843 -3.96772 -0.142907 -0.592032 8.59286 27.9208 1.51449 -25.387 0.0 0.0 0.0 0.0 0.0 
